# AST/ASF file generated using VICON BodyLanguage
# -----------------------------------------------
:version 1.10
:name VICON
:units
  mass 1.0
  length 0.45
  angle deg
:documentation
   .ast/.asf automatically generated from VICON data using
   VICON BodyBuilder and BodyLanguage model FoxedUp or BRILLIANT.MOD
:root
   order TX TY TZ RX RY RZ
   axis XYZ
   position 0 0 0  
   orientation 0 0 0 
:bonedata
  begin
     id 1 
     name lhipjoint
     direction 0.653368 -0.678499 0.335782 
     length 2.51848 
     axis 0 0 0  XYZ
  end
  begin
     id 2 
     name lfemur
     direction 0.34202 -0.939693 0  
     length 6.57749  
     axis 0 0 20  XYZ
    dof rx ry rz
    limits (-160.0 20.0)
           (-70.0 70.0)
           (-60.0 70.0)
  end
  begin
     id 3 
     name ltibia
     direction 0.34202 -0.939693 0   
     length 7.94618   
     axis 0 0 20   XYZ
    dof rx
    limits (-10.0 170.0)
  end
  begin
     id 4 
     name lfoot
     direction 0.0811271 -0.222895 0.971461   
     length 2.31339   
     axis -90 7.62852e-016 20   XYZ
    dof rx rz
    limits (-45.0 90.0)
           (-70.0 20.0)
  end
  begin
     id 5 
     name ltoes
     direction 1.53568e-011 -4.21885e-011 1   
     length 1.15935   
     axis -90 7.62852e-016 20   XYZ
    dof rx
    limits (-90.0 20.0)
  end
  begin
     id 6 
     name rhipjoint
     direction -0.640058 -0.688614 0.340788   
     length 2.48149  
     axis 0 0 0  XYZ 
  end
  begin
     id 7 
     name rfemur
     direction -0.34202 -0.939693 0   
     length 6.57875   
     axis 0 0 -20   XYZ
    dof rx ry rz
    limits (-160.0 20.0)
           (-70.0 70.0)
           (-70.0 60.0)
  end
  begin
     id 8 
     name rtibia
     direction -0.34202 -0.939693 0   
     length 7.977   
     axis 0 0 -20   XYZ
    dof rx
    limits (-10.0 170.0)
 end
 begin
     id 9 
     name rfoot
     direction -0.0979793 -0.269196 0.958089   
     length 2.19857  
     axis -90 -7.62852e-016 -20   XYZ
    dof rx rz
    limits (-45.0 90.0)
           (-20.0 70.0)
  end
  begin
     id 10 
     name rtoes
     direction -1.53556e-011 -4.21868e-011 1   
     length 1.09838   
     axis -90 -7.62852e-016 -20   XYZ
    dof rx
    limits (-90.0 20.0)
  end
  begin
     id 11 
     name lowerback
     direction 0.0149039 0.998517 -0.0523597   
     length 2.10809   
     axis 0 0 0   XYZ
    dof rx ry rz
    limits (-20.0 45.0)
           (-30.0 30.0)
           (-30.0 30.0)
  end
  begin
     id 12 
     name upperback
     direction -0.00882659 0.999418 -0.0329624   
     length 2.1102   
     axis 0 0 0   XYZ
    dof rx ry rz
    limits (-20.0 45.0)
           (-30.0 30.0)
           (-30.0 30.0)
  end
  begin
     id 13 
     name thorax
     direction -0.0165585 0.999826 -0.0085833   
     length 2.11039   
     axis 0 0 0   XYZ
    dof rx ry rz
    limits (-20.0 45.0)
           (-30.0 30.0)
           (-30.0 30.0)
  end
  begin
     id 14 
     name lowerneck
     direction -0.0130877 0.999911 0.00260353   
     length 1.73253   
     axis 0 0 0   XYZ
    dof rx ry rz
    limits (-20.0 45.0)
           (-30.0 30.0)
           (-30.0 30.0)
  end
  begin
     id 15 
     name upperneck
     direction -0.0348454 0.928205 -0.370435   
     length 1.66692   
     axis 0 0 0   XYZ
    dof rx ry rz
    limits (-20.0 45.0)
           (-30.0 30.0)
           (-30.0 30.0)
  end
  begin
     id 16
     name head
     direction -0.00807754 0.992494 -0.122026  
     length 1.72765  
     axis 0 0 0   XYZ
    dof rx ry rz
    limits (-20.0 45.0)
           (-30.0 30.0)
           (-30.0 30.0)
  end
  begin
     id 17 
     name lclavicle
     direction 0.987582 0.144023 0.0627671  
     length 3.49235  
     axis 0 0 0   XYZ
    dof ry rz
    limits (-20.0 10.0)
           (0.0 20.0)
  end
  begin
     id 18 
     name lhumerus
     direction 1 -4.48958e-011 -1.45183e-018   
     length 5.41917   
     axis 180 -30 -90   XYZ
    dof rx ry rz
    limits (-60.0 90.0)
           (-90.0 90.0)
           (-90.0 90.0)
  end
  begin
     id 19
     name lradius
     direction 1 -4.48999e-011 5.75106e-027   
     length 2.44373   
     axis 180 -30 -90   XYZ
    dof rx
    limits (-10.0 170.0)
  end
  begin
     id 20
     name lwrist
     direction 1 -4.48987e-011 1.53461e-026   
     length 1.22186   
     axis -1.09697e-014 90 90   XYZ
    dof ry
    limits (-180.0 0.0)
 end
  begin
     id 21 
     name lhand
     direction 1 -4.48881e-011 3.06923e-026   
     length 0.727502   
     axis -1.95843e-014 90 90   XYZ
    dof rx rz
    limits (-90.0 90.0)
           (-45.0 45.0)
  end
  begin
     id 22 
     name lfingers
     direction 1 -4.48907e-011 6.13845e-026   
     length 0.586531   
     axis -3.91686e-014 90 90   XYZ
    dof rx
    limits (0.0 90.0)
  end
  begin
     id 23
     name lthumb
     direction 0.707107 -6.3487e-011 0.707107   
     length 0.842145   
     axis -90 45 2.85299e-015   XYZ
    dof rx rz
    limits (-45.0 45.0)
           (-45.0 45.0)
  end
  begin
     id 24 
     name rclavicle
     direction -0.980998 0.169556 0.0943023   
     length 3.29272  
     axis 0 0 0   XYZ 
    dof ry rz
    limits (-10.0 20.0)
           (-20.0 0.0)
  end
  begin
     id 25 
     name rhumerus
     direction -1 -1.83355e-005 2.45537e-005  
     length 5.58976   
     axis 180 30 90   XYZ
    dof rx ry rz
    limits (-90.0 60.0)
           (-90.0 90.0)
           (-90.0 90.0)
  end
  begin
     id 26 
     name rradius
     direction -1 -4.48967e-011 5.97228e-027   
     length 2.4806   
     axis 180 30 90   XYZ
    dof rx
    limits (-10.0 170.0)
  end
  begin
     id 27 
     name rwrist
     direction -1 -4.48963e-011 1.53461e-026   
     length 1.2403   
     axis -1.09697e-014 -90 -90   XYZ
    dof ry
    limits (-180.0 0.0)
  end
  begin
     id 28
     name rhand
     direction -1 -4.48881e-011 3.06923e-026   
     length 0.816009   
     axis -1.95843e-014 -90 -90   XYZ
    dof rx rz
    limits (-90.0 90.0)
           (-45.0 45.0)
  end
  begin
     id 29
     name rfingers
     direction -1 -4.49018e-011 6.13845e-026   
     length 0.657887   
     axis -3.91686e-014 -90 -90   XYZ
    dof rx
    limits (0.0 90.0)
  end
  begin
     id 30
     name rthumb
     direction -0.707107 -6.34872e-011 0.707107   
     length 0.944599   
     axis -90 -45 -2.85299e-015   XYZ
    dof rx rz
    limits (-45.0 45.0)
           (-45.0 45.0)
  end
:hierarchy
  begin
    root lhipjoint rhipjoint lowerback
    lhipjoint lfemur
    lfemur ltibia
    ltibia lfoot
    lfoot ltoes
    rhipjoint rfemur
    rfemur rtibia
    rtibia rfoot
    rfoot rtoes
    lowerback upperback
    upperback thorax
    thorax lowerneck lclavicle rclavicle
    lowerneck upperneck
    upperneck head
    lclavicle lhumerus
    lhumerus lradius
    lradius lwrist
    lwrist lhand lthumb
    lhand lfingers
    rclavicle rhumerus
    rhumerus rradius
    rradius rwrist
    rwrist rhand rthumb
    rhand rfingers
  end

#!OML:ASF F:\VICON\USERDATA\INSTALL\rory3\rory3.ASF
:FULLY-SPECIFIED
:DEGREES
106
root 4.39746 16.5515 -15.1399 29.9465 8.88653 -3.96062
lowerback -17.7423 -0.627376 5.04891
upperback -10.4542 -1.55572 4.35779
thorax -1.30028 -0.862784 1.50738
lowerneck -16.5297 -1.99942 -0.129315
upperneck 40.4004 -1.88321 -2.82821
head 17.6829 -1.16743 -1.64192
rclavicle -4.22417e-016 -5.48646e-014
rhumerus -53.0304 15.5528 -85.7194
rradius 24.4643
rwrist -9.61054
rhand 17.4525 11.8591
rfingers 7.12502
rthumb 42.1549 -12.6788
lclavicle -4.22417e-016 -5.48646e-014
lhumerus -58.7553 -4.73715 91.8989
lradius 30.3369
lwrist 2.39174
lhand 8.78165 16.2656
lfingers 7.12502
lthumb 33.9699 43.0561
rfemur -43.6128 3.84528 34.8239
rtibia 29.9681
rfoot -29.6712 -32.1683
rtoes 17.2423
lfemur -21.8339 20.7306 -27.2027
ltibia 40.1555
lfoot 30.3315 43.5721
ltoes 23.1442
107
root 4.39436 16.5477 -15.1469 29.9734 8.87567 -3.87658
lowerback -17.6578 -0.663543 4.94137
upperback -10.5124 -1.57721 4.3491
thorax -1.40309 -0.871108 1.55755
lowerneck -16.4939 -1.98361 -0.133734
upperneck 40.5087 -1.85282 -2.83785
head 17.7365 -1.15623 -1.64279
rclavicle -2.65378e-014 2.14687e-014
rhumerus -53.1354 15.9969 -85.9755
rradius 24.5149
rwrist -9.74561
rhand 17.596 12.0486
rfingers 7.12502
rthumb 42.2893 -12.4437
lclavicle -2.65378e-014 2.14687e-014
lhumerus -58.7749 -4.65509 91.7893
lradius 30.4371
lwrist 2.27177
lhand 9.06615 16.454
lfingers 7.12502
lthumb 34.2401 43.1841
rfemur -43.5505 3.8825 34.7511
rtibia 29.8793
rfoot -29.9178 -31.9171
rtoes 17.8402
lfemur -21.9034 20.6425 -27.2773
ltibia 40.1758
lfoot 31.8216 42.5932
ltoes 21.3262
108
root 4.38936 16.5488 -15.1497 29.9851 8.72232 -3.63121
lowerback -17.5875 -0.691037 4.59358
upperback -10.541 -1.55612 4.27508
thorax -1.45828 -0.848012 1.67868
lowerneck -16.3311 -2.02535 -0.171968
upperneck 40.5209 -1.92636 -2.78755
head 17.7 -1.18456 -1.62361
rclavicle 5.27276e-014 -3.49861e-014
rhumerus -53.2457 16.3146 -86.1946
rradius 24.6342
rwrist -9.86082
rhand 17.5635 11.9648
rfingers 7.12502
rthumb 42.2589 -12.5379
lclavicle 5.27276e-014 -3.49861e-014
lhumerus -58.8106 -4.79056 91.863
lradius 30.572
lwrist 2.44546
lhand 9.15211 16.8442
lfingers 7.12502
lthumb 34.3217 43.556
rfemur -43.5108 4.29994 34.2663
rtibia 29.8155
rfoot -29.9862 -32.2427
rtoes 17.5955
lfemur -21.8454 20.5707 -27.5358
ltibia 40.1378
lfoot 32.1422 42.8058
ltoes 20.526
109
root 4.39003 16.5495 -15.1502 29.8869 8.68312 -3.59143
lowerback -17.54 -0.663289 4.55141
upperback -10.4643 -1.51474 4.23099
thorax -1.39866 -0.825403 1.66096
lowerneck -16.3795 -2.0596 -0.115081
upperneck 40.5545 -1.99912 -2.79001
head 17.7289 -1.20464 -1.65095
rclavicle 1.14301e-014 9.54166e-015
rhumerus -53.2131 16.6506 -86.4092
rradius 24.7458
rwrist -9.96019
rhand 17.4792 11.9388
rfingers 7.12502
rthumb 42.1799 -12.5907
lclavicle 1.14301e-014 9.54166e-015
lhumerus -58.6397 -4.99022 91.9411
lradius 30.4464
lwrist 2.50407
lhand 8.9673 16.7713
lfingers 7.12502
lthumb 34.1462 43.5225
rfemur -43.4221 4.40602 34.1527
rtibia 29.8079
rfoot -29.8761 -32.5368
rtoes 16.5273
lfemur -21.6596 20.5282 -27.5158
ltibia 40.0386
lfoot 33.6244 41.2194
ltoes 18.9951
110
root 4.39424 16.5495 -15.1455 29.7514 8.69275 -3.84289
lowerback -17.6598 -0.548789 4.84765
upperback -10.4174 -1.41792 4.21995
thorax -1.29713 -0.788106 1.49615
lowerneck -16.0924 -2.09772 0.00295454
upperneck 40.5179 -2.09713 -2.80389
head 17.6261 -1.22815 -1.68915
rclavicle 8.3738e-015 -9.54166e-015
rhumerus -53.3458 16.9135 -86.6256
rradius 25.0088
rwrist -10.118
rhand 17.9199 11.7161
rfingers 7.12502
rthumb 42.5926 -12.6723
lclavicle 8.3738e-015 -9.54166e-015
lhumerus -58.6912 -5.14321 91.9265
lradius 30.444
lwrist 2.46793
lhand 8.25988 16.1228
lfingers 7.12502
lthumb 33.4741 43.0218
rfemur -43.2701 4.29034 34.489
rtibia 29.7963
rfoot -29.6638 -32.5239
rtoes 16.2044
lfemur -21.4821 20.5484 -27.1984
ltibia 39.9515
lfoot 40.3337 34.7652
ltoes 4.12197
111
root 4.39387 16.5505 -15.1444 29.7171 8.44306 -3.77535
lowerback -17.6777 -0.546379 4.65654
upperback -10.2776 -1.39954 4.24047
thorax -1.12847 -0.767275 1.62448
lowerneck -16.4557 -2.06168 0.0427958
upperneck 40.5851 -2.03178 -2.85935
head 17.761 -1.2025 -1.72024
rclavicle 2.63887e-014 -4.29375e-014
rhumerus -53.1585 17.2813 -86.5661
rradius 25.4709
rwrist -10.2197
rhand 18.4047 11.7403
rfingers 7.12502
rthumb 43.0461 -12.4893
lclavicle 2.63887e-014 -4.29375e-014
lhumerus -58.3952 -4.893 91.717
lradius 30.4772
lwrist 2.16698
lhand 7.93146 15.5619
lfingers 7.12502
lthumb 33.1619 42.5278
rfemur -43.1693 4.51239 34.2859
rtibia 29.7751
rfoot -29.917 -32.3274
rtoes 17.5103
lfemur -21.3724 20.5863 -27.3245
ltibia 39.8753
lfoot 41.054 33.6366
ltoes 2.17189
112
root 4.38676 16.5531 -15.1561 29.8548 8.3344 -3.61899
lowerback -17.5875 -0.593901 4.36408
upperback -10.4006 -1.40567 4.24231
thorax -1.29801 -0.760426 1.79309
lowerneck -16.2975 -2.05546 0.0709903
upperneck 40.6109 -2.02021 -2.89144
head 17.7331 -1.198 -1.73524
rclavicle -1.93567e-014 3.18055e-015
rhumerus -53.4075 17.5809 -86.6516
rradius 25.9745
rwrist -10.1732
rhand 17.9073 12.452
rfingers 7.12502
rthumb 42.5808 -11.9404
lclavicle -1.93567e-014 3.18055e-015
lhumerus -58.4565 -4.91484 91.7401
lradius 30.4989
lwrist 2.16862
lhand 8.21651 15.7609
lfingers 7.12502
lthumb 33.4329 42.6688
rfemur -43.3363 5.17365 33.8014
rtibia 29.7862
rfoot -31.1493 -32.3172
rtoes 19.3826
lfemur -21.5534 20.4941 -27.5373
ltibia 39.8333
lfoot 40.5954 34.4242
ltoes 3.86669
113
root 4.38268 16.5553 -15.1624 29.9449 8.3713 -3.49911
lowerback -17.5583 -0.652927 4.19769
upperback -10.4473 -1.45442 4.2503
thorax -1.35753 -0.778179 1.88847
lowerneck -16.2248 -2.10874 -0.0714433
upperneck 40.6188 -2.10318 -2.77206
head 17.7213 -1.23685 -1.66913
rclavicle 9.29318e-015 -1.03368e-014
rhumerus -53.4718 17.965 -86.7805
rradius 26.2244
rwrist -10.178
rhand 16.8037 13.696
rfingers 7.12502
rthumb 41.5467 -11.0441
lclavicle 9.29318e-015 -1.03368e-014
lhumerus -58.3061 -4.90864 91.7426
lradius 30.2815
lwrist 2.20994
lhand 8.42142 15.9567
lfingers 7.12502
lthumb 33.6276 42.8224
rfemur -43.4877 5.31637 33.6031
rtibia 29.8479
rfoot -33.2621 -31.7666
rtoes 21.9432
lfemur -21.643 20.3714 -27.6284
ltibia 39.7889
lfoot 41.1043 33.827
ltoes 2.78857
114
root 4.38351 16.5541 -15.1639 30.0542 8.2506 -3.39964
lowerback -17.6844 -0.634875 4.09247
upperback -10.4268 -1.42535 4.19782
thorax -1.26804 -0.759381 1.89434
lowerneck -16.3605 -2.15068 -0.0911341
upperneck 40.7354 -2.17208 -2.74792
head 17.8239 -1.26289 -1.67498
rclavicle -3.10104e-014 1.74931e-014
rhumerus -53.355 18.3144 -86.9199
rradius 26.3248
rwrist -10.2672
rhand 15.3389 15.5948
rfingers 7.12502
rthumb 40.1706 -9.5796
lclavicle -3.10104e-014 1.74931e-014
lhumerus -58.0929 -4.96684 91.7211
lradius 30.1415
lwrist 2.234
lhand 8.40738 16.3787
lfingers 7.12502
lthumb 33.6143 43.2472
rfemur -43.6174 5.26933 33.4929
rtibia 29.8854
rfoot -30.6539 -32.5447
rtoes 17.4909
lfemur -21.6945 20.2931 -27.7901
ltibia 39.7525
lfoot 40.3172 34.6306
ltoes 5.07624
115
root 4.38539 16.5525 -15.1658 30.1057 8.11636 -3.46652
lowerback -17.7023 -0.638135 4.11764
upperback -10.4263 -1.43656 4.28066
thorax -1.25732 -0.764045 1.96606
lowerneck -16.5937 -2.07563 -0.0760623
upperneck 40.8213 -2.02383 -2.83412
head 17.9385 -1.21244 -1.69786
rclavicle 1.82882e-014 -3.97569e-014
rhumerus -53.3656 18.8884 -87.0453
rradius 26.5983
rwrist -10.2107
rhand 15.3155 15.3732
rfingers 7.12502
rthumb 40.1485 -9.80792
lclavicle 1.82882e-014 -3.97569e-014
lhumerus -57.9993 -4.82541 91.7668
lradius 30.2116
lwrist 2.45114
lhand 8.48786 17.1537
lfingers 7.12502
lthumb 33.6908 44.0055
rfemur -43.6871 5.13732 33.623
rtibia 29.895
rfoot -31.8655 -31.6935
rtoes 20.1859
lfemur -21.7079 20.3215 -27.7947
ltibia 39.6858
lfoot 40.0992 34.6846
ltoes 5.48997
116
root 4.38726 16.5545 -15.1625 30.0841 8.10365 -3.54514
lowerback -17.6915 -0.61303 4.16189
upperback -10.4997 -1.40461 4.3218
thorax -1.34369 -0.749659 1.9918
lowerneck -16.2752 -2.12922 -0.168665
upperneck 40.7769 -2.09354 -2.79269
head 17.8285 -1.25006 -1.66653
rclavicle 3.47376e-014 -3.10104e-014
rhumerus -53.534 19.1105 -87.0761
rradius 26.7686
rwrist -10.0765
rhand 16.1688 14.7155
rfingers 7.12502
rthumb 40.9507 -10.2166
lclavicle 3.47376e-014 -3.10104e-014
lhumerus -58.1377 -4.84689 91.8214
lradius 30.2925
lwrist 2.51246
lhand 8.26254 17.3329
lfingers 7.12502
lthumb 33.4766 44.2313
rfemur -43.6476 5.14425 33.697
rtibia 29.8703
rfoot -31.18 -31.8697
rtoes 19.4062
lfemur -21.6011 20.3386 -27.6935
ltibia 39.5425
lfoot 43.6225 31.5859
ltoes 0.111818
117
root 4.38938 16.5537 -15.1553 29.9352 8.04532 -3.57171
lowerback -17.6409 -0.63025 4.15868
upperback -10.4335 -1.42876 4.37934
thorax -1.29623 -0.759548 2.04995
lowerneck -15.9629 -2.23239 -0.496477
upperneck 40.6641 -2.20907 -2.62881
head 17.6881 -1.32696 -1.54334
rclavicle 0 -1.19271e-014
rhumerus -53.5011 19.5972 -87.2057
rradius 26.8852
rwrist -10.4232
rhand 16.6874 14.1087
rfingers 7.12502
rthumb 41.4376 -10.667
lclavicle 0 -1.19271e-014
lhumerus -58.0618 -4.65912 91.7491
lradius 30.289
lwrist 2.34988
lhand 7.77996 16.8232
lfingers 7.12502
lthumb 33.0178 43.8197
rfemur -43.4327 5.31492 33.6324
rtibia 29.7903
rfoot -30.4727 -32.4114
rtoes 18.0354
lfemur -21.2558 20.3207 -27.6114
ltibia 39.3016
lfoot 41.4113 32.8554
ltoes 2.08043
118
root 4.39931 16.5471 -15.1395 29.3867 7.81299 -3.76423
lowerback -17.3633 -0.451492 4.39254
upperback -10.4075 -1.20831 4.28501
thorax -1.42173 -0.663199 1.85641
lowerneck -15.2716 -2.31853 -0.456982
upperneck 40.5686 -2.38836 -2.5706
head 17.4473 -1.3869 -1.53797
rclavicle 1.06598e-014 -5.56597e-015
rhumerus -53.9874 19.7177 -87.479
rradius 27.1983
rwrist -10.8545
rhand 15.6514 14.6034
rfingers 7.12502
rthumb 40.4644 -10.4808
lclavicle 1.06598e-014 -5.56597e-015
lhumerus -58.4343 -4.98293 91.8423
lradius 30.3558
lwrist 2.474
lhand 7.17473 16.1756
lfingers 7.12502
lthumb 32.442 43.2919
rfemur -42.7065 4.84086 34.0435
rtibia 29.7402
rfoot -30.9003 -31.6045
rtoes 18.9547
lfemur -20.4761 20.6828 -27.3011
ltibia 39.1882
lfoot 41.5201 32.3671
ltoes 1.677
